# xmcd
#
# Track frame offsets:
#	150
#	8012
#	24559
#	35068
#	47393
#	60225
#
# Disc length: 1006 seconds
#
# Revision: 1
# Processed by: cddbd v1.5.2PL0 Copyright (c) Steve Scherf et al.
# Submitted via: audiograbber 1.83.01
#
DISCID=3b03ec06
DTITLE=Christin Henkel - Lieder von Christin
DYEAR=1900
DGENRE=
TTITLE0=Keine Angst vor C-Dur
TTITLE1=August
TTITLE2=Kathi und der Chirurg
TTITLE3=Faultierlied
TTITLE4=Anna, Sebi und der Schwan
TTITLE5=So gern
EXTD=
EXTT0=
EXTT1=
EXTT2=
EXTT3=
EXTT4=
EXTT5=
PLAYORDER=
